<svg xmlns="http://www.w3.org/2000/svg" viewBox="0 0 50 300"><defs><style>.cls-1{fill:none;}.cls-2{fill:#fff;}</style></defs><title>hari_hour</title><g id="レイヤー_2" data-name="レイヤー 2"><g id="レイヤー_1-2" data-name="レイヤー 1"><rect class="cls-1" width="50" height="300"/><path class="cls-2" d="M34.77,154c-1.66-10.9-9.25-8.26-9.89-60.64l-1.27,0c.64,52.37-7,49.92-8.41,60.86-.68,5.35,3.75,10.13,8.69,10.78-1,17.57-1.46,54-1.35,63.14.15,12.2,1.82,22.07,3.73,22s3.34-9.93,3.2-22.13c-.12-9.17-1.43-45.61-2.9-63.13C31.4,164.06,35.57,159.24,34.77,154Zm-5.31,4.86a6.15,6.15,0,0,1-4.39,2.24H25a6.17,6.17,0,0,1-4.42-2.16,5.42,5.42,0,0,1-1.43-4.2,21.55,21.55,0,0,1,2-6.31,56.29,56.29,0,0,0,3.64-11,56.57,56.57,0,0,0,3.91,10.9,21.51,21.51,0,0,1,2.12,6.27A5.4,5.4,0,0,1,29.46,158.85Z"/></g></g></svg>