<svg xmlns="http://www.w3.org/2000/svg" viewBox="0 0 50 300"><defs><style>.cls-1{fill:none;}.cls-2{fill:#fff;}</style></defs><title>hari_minutes</title><g id="レイヤー_2" data-name="レイヤー 2"><g id="レイヤー_1-2" data-name="レイヤー 1"><rect class="cls-1" width="50" height="300"/><path class="cls-2" d="M27.49,282.38C28.32,274.54,29,264.57,29,257c0-14.55-1.5-12.75-3.7-12.75s-3.71-1.8-3.71,12.75c0,7.56.71,17.53,1.54,25.37a8.89,8.89,0,1,0,4.33,0Z"/><circle class="cls-2" cx="25" cy="250.2" r="9.12"/><path class="cls-2" d="M36.13,76.7C34.44,62.91,26,66.13,26,0H24.62c0,66.13-8.41,62.91-10.1,76.7-.82,6.69,3.92,12.74,9.31,13.72C21.64,113.14,20,200.83,20,216.13c0,18.62,2.37,33.72,5.29,33.72s5.28-15.1,5.28-33.72c0-15.3-1.6-103-3.79-125.71C32.21,89.44,37,83.39,36.13,76.7Z"/></g></g></svg>